<svg preserveAspectRatio="none" overflow="visible" style="display: block;" width="181.747" height="168.039" viewBox="0 0 181.747 168.039" fill="none" xmlns="http://www.w3.org/2000/svg">
<path id="Vector" d="M87.4466 87.4466C89.2643 87.4466 91.0077 88.1687 92.293 89.454C93.5784 90.7394 94.3005 92.4827 94.3005 94.3004C94.3005 97.936 92.8562 101.423 90.2855 103.993C87.7148 106.564 84.2282 108.008 80.5927 108.008C75.1394 108.008 69.9095 105.842 66.0534 101.986C62.1974 98.1298 60.0311 92.8999 60.0311 87.4466C60.0311 80.1755 62.9195 73.2023 68.0609 68.0609C73.2023 62.9195 80.1755 60.031 87.4466 60.031C96.5354 60.031 105.252 63.6416 111.679 70.0683C118.105 76.4951 121.716 85.2116 121.716 94.3004C121.716 105.207 117.383 115.667 109.671 123.379C101.959 131.091 91.4993 135.424 80.5927 135.424C67.8684 135.424 55.6652 130.369 46.6677 121.372C37.6703 112.374 32.6155 100.171 32.6155 87.4466C32.6155 72.9045 38.3923 58.958 48.6752 48.6752C58.958 38.3923 72.9045 32.6155 87.4466 32.6155C103.806 32.6155 119.496 39.1144 131.064 50.6826C142.633 62.2508 149.132 77.9406 149.132 94.3004C149.132 103.301 147.359 112.214 143.914 120.529C140.47 128.845 135.421 136.4 129.057 142.765C122.693 149.129 115.137 154.178 106.821 157.622C98.5058 161.066 89.5933 162.839 80.5927 162.839C60.5973 162.839 41.4209 154.896 27.282 140.757C13.1431 126.618 5.2 107.442 5.2 87.4466C5.2 65.6334 13.8652 44.7137 29.2895 29.2895C44.7137 13.8652 65.6334 5.2 87.4466 5.2C99.1474 5.2 110.734 7.50465 121.544 11.9824C132.354 16.4601 142.176 23.0232 150.45 31.2969C158.724 39.5707 165.287 49.393 169.765 60.2032C174.242 71.0133 176.547 82.5996 176.547 94.3004" stroke="#E9D7FE" stroke-width="10.4" stroke-linejoin="round"/>
</svg>
